<svg width="540" height="720" viewBox="0 0 540 720" fill="none" xmlns="http://www.w3.org/2000/svg">
  <rect width="540" height="720" fill="#F8F9FA"/>
  <rect x="0" y="0" width="540" height="60" fill="#FFFFFF" stroke="#E9ECEF" stroke-width="1"/>
  <rect x="20" y="15" width="30" height="30" rx="4" fill="#FF9F43"/>
  <text x="60" y="37" font-family="Arial" font-size="20" font-weight="bold" fill="#333333">KRIOS</text>
  <rect x="20" y="80" width="500" height="620" rx="8" fill="#FFFFFF" stroke="#E9ECEF" stroke-width="1"/>
  <rect x="40" y="100" width="460" height="60" rx="4" fill="#F8F9FA"/>
  <rect x="40" y="180" width="460" height="100" rx="4" fill="#F8F9FA"/>
  <rect x="40" y="300" width="460" height="100" rx="4" fill="#F8F9FA"/>
  <rect x="40" y="420" width="460" height="100" rx="4" fill="#F8F9FA"/>
  <rect x="40" y="540" width="460" height="100" rx="4" fill="#F8F9FA"/>
  <g transform="translate(250, 660) scale(0.8)">
    <path d="M20 0H40L20 40H0L20 0Z" fill="#FF9F43"/>
    <path d="M30 0H50L30 40H10L30 0Z" fill="#FF8F2B" fill-opacity="0.7"/>
  </g>
</svg>