<svg width="1280" height="720" viewBox="0 0 1280 720" fill="none" xmlns="http://www.w3.org/2000/svg">
  <rect width="1280" height="720" fill="#F8F9FA"/>
  <rect x="0" y="0" width="1280" height="60" fill="#FFFFFF" stroke="#E9ECEF" stroke-width="1"/>
  <rect x="20" y="15" width="30" height="30" rx="4" fill="#FF9F43"/>
  <text x="60" y="37" font-family="Arial" font-size="20" font-weight="bold" fill="#333333">KRIOS</text>
  <rect x="200" y="120" width="880" height="500" rx="8" fill="#FFFFFF" stroke="#E9ECEF" stroke-width="1"/>
  <rect x="240" y="160" width="800" height="60" rx="4" fill="#F8F9FA"/>
  <rect x="240" y="240" width="240" height="120" rx="4" fill="#F8F9FA"/>
  <rect x="500" y="240" width="240" height="120" rx="4" fill="#F8F9FA"/>
  <rect x="760" y="240" width="240" height="120" rx="4" fill="#F8F9FA"/>
  <rect x="240" y="380" width="800" height="200" rx="4" fill="#F8F9FA"/>
  <g transform="translate(100, 640) scale(1)">
    <path d="M20 0H40L20 40H0L20 0Z" fill="#FF9F43"/>
    <path d="M30 0H50L30 40H10L30 0Z" fill="#FF8F2B" fill-opacity="0.7"/>
  </g>
</svg>